<svg aria-roledescription="er" role="graphics-document document" viewBox="0 0 425.87744140625 419" style="max-width: 425.877px; background-color: white;" xmlns:xlink="http://www.w3.org/1999/xlink" xmlns="http://www.w3.org/2000/svg" width="100%" id="mermaid-0"><style>#mermaid-0{font-family:"trebuchet ms",verdana,arial,sans-serif;font-size:16px;fill:#000000;}#mermaid-0 .error-icon{fill:#552222;}#mermaid-0 .error-text{fill:#552222;stroke:#552222;}#mermaid-0 .edge-thickness-normal{stroke-width:2px;}#mermaid-0 .edge-thickness-thick{stroke-width:3.5px;}#mermaid-0 .edge-pattern-solid{stroke-dasharray:0;}#mermaid-0 .edge-pattern-dashed{stroke-dasharray:3;}#mermaid-0 .edge-pattern-dotted{stroke-dasharray:2;}#mermaid-0 .marker{fill:#000000;stroke:#000000;}#mermaid-0 .marker.cross{stroke:#000000;}#mermaid-0 svg{font-family:"trebuchet ms",verdana,arial,sans-serif;font-size:16px;}#mermaid-0 .entityBox{fill:#cde498;stroke:#13540c;}#mermaid-0 .attributeBoxOdd{fill:#ffffff;stroke:#13540c;}#mermaid-0 .attributeBoxEven{fill:#f2f2f2;stroke:#13540c;}#mermaid-0 .relationshipLabelBox{fill:hsl(78.1578947368, 58.4615384615%, 84.5098039216%);opacity:0.7;background-color:hsl(78.1578947368, 58.4615384615%, 84.5098039216%);}#mermaid-0 .relationshipLabelBox rect{opacity:0.5;}#mermaid-0 .relationshipLine{stroke:#000000;}#mermaid-0 .entityTitleText{text-anchor:middle;font-size:18px;fill:#000000;}#mermaid-0 :root{--mermaid-font-family:"trebuchet ms",verdana,arial,sans-serif;}</style><g/><defs><marker orient="auto" markerHeight="18" markerWidth="18" refY="9" refX="0" id="ONLY_ONE_START"><path d="M9,0 L9,18 M15,0 L15,18" fill="none" stroke="gray"/></marker></defs><defs><marker orient="auto" markerHeight="18" markerWidth="18" refY="9" refX="18" id="ONLY_ONE_END"><path d="M3,0 L3,18 M9,0 L9,18" fill="none" stroke="gray"/></marker></defs><defs><marker orient="auto" markerHeight="18" markerWidth="30" refY="9" refX="0" id="ZERO_OR_ONE_START"><circle r="6" cy="9" cx="21" fill="white" stroke="gray"/><path d="M9,0 L9,18" fill="none" stroke="gray"/></marker></defs><defs><marker orient="auto" markerHeight="18" markerWidth="30" refY="9" refX="30" id="ZERO_OR_ONE_END"><circle r="6" cy="9" cx="9" fill="white" stroke="gray"/><path d="M21,0 L21,18" fill="none" stroke="gray"/></marker></defs><defs><marker orient="auto" markerHeight="36" markerWidth="45" refY="18" refX="18" id="ONE_OR_MORE_START"><path d="M0,18 Q 18,0 36,18 Q 18,36 0,18 M42,9 L42,27" fill="none" stroke="gray"/></marker></defs><defs><marker orient="auto" markerHeight="36" markerWidth="45" refY="18" refX="27" id="ONE_OR_MORE_END"><path d="M3,9 L3,27 M9,18 Q27,0 45,18 Q27,36 9,18" fill="none" stroke="gray"/></marker></defs><defs><marker orient="auto" markerHeight="36" markerWidth="57" refY="18" refX="18" id="ZERO_OR_MORE_START"><circle r="6" cy="18" cx="48" fill="white" stroke="gray"/><path d="M0,18 Q18,0 36,18 Q18,36 0,18" fill="none" stroke="gray"/></marker></defs><defs><marker orient="auto" markerHeight="36" markerWidth="57" refY="18" refX="39" id="ZERO_OR_MORE_END"><circle r="6" cy="18" cx="9" fill="white" stroke="gray"/><path d="M21,18 Q39,0 57,18 Q39,36 21,18" fill="none" stroke="gray"/></marker></defs><path style="stroke: gray; fill: none;" marker-start="url(#ZERO_OR_ONE_START)" marker-end="url(#ONLY_ONE_END)" d="M141.993994140625,170L133.89603678385416,178.33333333333334C125.79807942708334,186.66666666666666,109.60216471354165,203.33333333333334,101.50420735677083,223.5C93.40625,243.66666666666666,93.40625,267.3333333333333,93.40625,279.1666666666667L93.40625,291" class="er relationshipLine"/><path style="stroke: gray; fill: none;" marker-start="url(#ZERO_OR_MORE_START)" marker-end="url(#ONLY_ONE_END)" d="M287.7572265625,170L295.8551839192708,178.33333333333334C303.95314127604166,186.66666666666666,320.14905598958336,203.33333333333334,328.24701334635415,220C336.344970703125,236.66666666666666,336.344970703125,253.33333333333334,336.344970703125,261.6666666666667L336.344970703125,270" class="er relationshipLine"/><g transform="translate(20,291 )" id="entity-Status-07219c5b-eba2-5891-af91-1e86cbd77781"><rect height="87" width="146.8125" y="0" x="0" class="er entityBox"/><text style="dominant-baseline: middle; text-anchor: middle; font-size: 12px;" transform="translate(73.40625,12)" y="0" x="0" id="text-entity-Status-07219c5b-eba2-5891-af91-1e86cbd77781" class="er entityLabel">Status</text><rect height="21" width="73.40625" y="24" x="0" class="er attributeBoxOdd"/><text style="dominant-baseline: middle; font-size: 10.2px;" transform="translate(5,34.5)" y="0" x="0" id="text-entity-Status-07219c5b-eba2-5891-af91-1e86cbd77781-attr-1-type" class="er entityLabel">PENDANT</text><rect height="21" width="73.40625" y="24" x="73.40625" class="er attributeBoxOdd"/><text style="dominant-baseline: middle; font-size: 10.2px;" transform="translate(78.40625,34.5)" y="0" x="0" id="text-entity-Status-07219c5b-eba2-5891-af91-1e86cbd77781-attr-1-name" class="er entityLabel">PENDANT</text><rect height="21" width="73.40625" y="45" x="0" class="er attributeBoxEven"/><text style="dominant-baseline: middle; font-size: 10.2px;" transform="translate(5,55.5)" y="0" x="0" id="text-entity-Status-07219c5b-eba2-5891-af91-1e86cbd77781-attr-2-type" class="er entityLabel">COMPLETED</text><rect height="21" width="73.40625" y="45" x="73.40625" class="er attributeBoxEven"/><text style="dominant-baseline: middle; font-size: 10.2px;" transform="translate(78.40625,55.5)" y="0" x="0" id="text-entity-Status-07219c5b-eba2-5891-af91-1e86cbd77781-attr-2-name" class="er entityLabel">COMPLETED</text><rect height="21" width="73.40625" y="66" x="0" class="er attributeBoxOdd"/><text style="dominant-baseline: middle; font-size: 10.2px;" transform="translate(5,76.5)" y="0" x="0" id="text-entity-Status-07219c5b-eba2-5891-af91-1e86cbd77781-attr-3-type" class="er entityLabel">CANCELED</text><rect height="21" width="73.40625" y="66" x="73.40625" class="er attributeBoxOdd"/><text style="dominant-baseline: middle; font-size: 10.2px;" transform="translate(78.40625,76.5)" y="0" x="0" id="text-entity-Status-07219c5b-eba2-5891-af91-1e86cbd77781-attr-3-name" class="er entityLabel">CANCELED</text></g><g transform="translate(266.8125,270 )" id="entity-users-33ae1e26-be31-5c1d-bf65-e859e9d0308e"><rect height="129" width="139.06494140625" y="0" x="0" class="er entityBox"/><text style="dominant-baseline: middle; text-anchor: middle; font-size: 12px;" transform="translate(69.532470703125,12)" y="0" x="0" id="text-entity-users-33ae1e26-be31-5c1d-bf65-e859e9d0308e" class="er entityLabel">users</text><rect height="21" width="54.113128662109375" y="24" x="0" class="er attributeBoxOdd"/><text style="dominant-baseline: middle; font-size: 10.2px;" transform="translate(5,34.5)" y="0" x="0" id="text-entity-users-33ae1e26-be31-5c1d-bf65-e859e9d0308e-attr-1-type" class="er entityLabel">Int</text><rect height="21" width="61.156829833984375" y="24" x="54.113128662109375" class="er attributeBoxOdd"/><text style="dominant-baseline: middle; font-size: 10.2px;" transform="translate(59.113128662109375,34.5)" y="0" x="0" id="text-entity-users-33ae1e26-be31-5c1d-bf65-e859e9d0308e-attr-1-name" class="er entityLabel">id</text><rect height="21" width="23.79498291015625" y="24" x="115.26995849609375" class="er attributeBoxOdd"/><text style="dominant-baseline: middle; font-size: 10.2px;" transform="translate(120.26995849609375,34.5)" y="0" x="0" id="text-entity-users-33ae1e26-be31-5c1d-bf65-e859e9d0308e-attr-1-key" class="er entityLabel">PK</text><rect height="21" width="54.113128662109375" y="45" x="0" class="er attributeBoxEven"/><text style="dominant-baseline: middle; font-size: 10.2px;" transform="translate(5,55.5)" y="0" x="0" id="text-entity-users-33ae1e26-be31-5c1d-bf65-e859e9d0308e-attr-2-type" class="er entityLabel">String</text><rect height="21" width="61.156829833984375" y="45" x="54.113128662109375" class="er attributeBoxEven"/><text style="dominant-baseline: middle; font-size: 10.2px;" transform="translate(59.113128662109375,55.5)" y="0" x="0" id="text-entity-users-33ae1e26-be31-5c1d-bf65-e859e9d0308e-attr-2-name" class="er entityLabel">login</text><rect height="21" width="23.79498291015625" y="45" x="115.26995849609375" class="er attributeBoxEven"/><text style="dominant-baseline: middle; font-size: 10.2px;" transform="translate(120.26995849609375,55.5)" y="0" x="0" id="text-entity-users-33ae1e26-be31-5c1d-bf65-e859e9d0308e-attr-2-key" class="er entityLabel"/><rect height="21" width="54.113128662109375" y="66" x="0" class="er attributeBoxOdd"/><text style="dominant-baseline: middle; font-size: 10.2px;" transform="translate(5,76.5)" y="0" x="0" id="text-entity-users-33ae1e26-be31-5c1d-bf65-e859e9d0308e-attr-3-type" class="er entityLabel">String</text><rect height="21" width="61.156829833984375" y="66" x="54.113128662109375" class="er attributeBoxOdd"/><text style="dominant-baseline: middle; font-size: 10.2px;" transform="translate(59.113128662109375,76.5)" y="0" x="0" id="text-entity-users-33ae1e26-be31-5c1d-bf65-e859e9d0308e-attr-3-name" class="er entityLabel">password</text><rect height="21" width="23.79498291015625" y="66" x="115.26995849609375" class="er attributeBoxOdd"/><text style="dominant-baseline: middle; font-size: 10.2px;" transform="translate(120.26995849609375,76.5)" y="0" x="0" id="text-entity-users-33ae1e26-be31-5c1d-bf65-e859e9d0308e-attr-3-key" class="er entityLabel"/><rect height="21" width="54.113128662109375" y="87" x="0" class="er attributeBoxEven"/><text style="dominant-baseline: middle; font-size: 10.2px;" transform="translate(5,97.5)" y="0" x="0" id="text-entity-users-33ae1e26-be31-5c1d-bf65-e859e9d0308e-attr-4-type" class="er entityLabel">DateTime</text><rect height="21" width="61.156829833984375" y="87" x="54.113128662109375" class="er attributeBoxEven"/><text style="dominant-baseline: middle; font-size: 10.2px;" transform="translate(59.113128662109375,97.5)" y="0" x="0" id="text-entity-users-33ae1e26-be31-5c1d-bf65-e859e9d0308e-attr-4-name" class="er entityLabel">created_at</text><rect height="21" width="23.79498291015625" y="87" x="115.26995849609375" class="er attributeBoxEven"/><text style="dominant-baseline: middle; font-size: 10.2px;" transform="translate(120.26995849609375,97.5)" y="0" x="0" id="text-entity-users-33ae1e26-be31-5c1d-bf65-e859e9d0308e-attr-4-key" class="er entityLabel"/><rect height="21" width="54.113128662109375" y="108" x="0" class="er attributeBoxOdd"/><text style="dominant-baseline: middle; font-size: 10.2px;" transform="translate(5,118.5)" y="0" x="0" id="text-entity-users-33ae1e26-be31-5c1d-bf65-e859e9d0308e-attr-5-type" class="er entityLabel">DateTime</text><rect height="21" width="61.156829833984375" y="108" x="54.113128662109375" class="er attributeBoxOdd"/><text style="dominant-baseline: middle; font-size: 10.2px;" transform="translate(59.113128662109375,118.5)" y="0" x="0" id="text-entity-users-33ae1e26-be31-5c1d-bf65-e859e9d0308e-attr-5-name" class="er entityLabel">updated_at</text><rect height="21" width="23.79498291015625" y="108" x="115.26995849609375" class="er attributeBoxOdd"/><text style="dominant-baseline: middle; font-size: 10.2px;" transform="translate(120.26995849609375,118.5)" y="0" x="0" id="text-entity-users-33ae1e26-be31-5c1d-bf65-e859e9d0308e-attr-5-key" class="er entityLabel"/></g><g transform="translate(124.31378173828125,20 )" id="entity-activities-52c6c7c7-33a3-5380-956b-851092f1c73a"><rect height="150" width="181.1236572265625" y="0" x="0" class="er entityBox"/><text style="dominant-baseline: middle; text-anchor: middle; font-size: 12px;" transform="translate(90.56182861328125,12)" y="0" x="0" id="text-entity-activities-52c6c7c7-33a3-5380-956b-851092f1c73a" class="er entityLabel">activities</text><rect height="21" width="54.113128662109375" y="24" x="0" class="er attributeBoxOdd"/><text style="dominant-baseline: middle; font-size: 10.2px;" transform="translate(5,34.5)" y="0" x="0" id="text-entity-activities-52c6c7c7-33a3-5380-956b-851092f1c73a-attr-1-type" class="er entityLabel">Int</text><rect height="21" width="103.21554565429688" y="24" x="54.113128662109375" class="er attributeBoxOdd"/><text style="dominant-baseline: middle; font-size: 10.2px;" transform="translate(59.113128662109375,34.5)" y="0" x="0" id="text-entity-activities-52c6c7c7-33a3-5380-956b-851092f1c73a-attr-1-name" class="er entityLabel">id</text><rect height="21" width="23.79498291015625" y="24" x="157.32867431640625" class="er attributeBoxOdd"/><text style="dominant-baseline: middle; font-size: 10.2px;" transform="translate(162.32867431640625,34.5)" y="0" x="0" id="text-entity-activities-52c6c7c7-33a3-5380-956b-851092f1c73a-attr-1-key" class="er entityLabel">PK</text><rect height="21" width="54.113128662109375" y="45" x="0" class="er attributeBoxEven"/><text style="dominant-baseline: middle; font-size: 10.2px;" transform="translate(5,55.5)" y="0" x="0" id="text-entity-activities-52c6c7c7-33a3-5380-956b-851092f1c73a-attr-2-type" class="er entityLabel">String</text><rect height="21" width="103.21554565429688" y="45" x="54.113128662109375" class="er attributeBoxEven"/><text style="dominant-baseline: middle; font-size: 10.2px;" transform="translate(59.113128662109375,55.5)" y="0" x="0" id="text-entity-activities-52c6c7c7-33a3-5380-956b-851092f1c73a-attr-2-name" class="er entityLabel">name</text><rect height="21" width="23.79498291015625" y="45" x="157.32867431640625" class="er attributeBoxEven"/><text style="dominant-baseline: middle; font-size: 10.2px;" transform="translate(162.32867431640625,55.5)" y="0" x="0" id="text-entity-activities-52c6c7c7-33a3-5380-956b-851092f1c73a-attr-2-key" class="er entityLabel"/><rect height="21" width="54.113128662109375" y="66" x="0" class="er attributeBoxOdd"/><text style="dominant-baseline: middle; font-size: 10.2px;" transform="translate(5,76.5)" y="0" x="0" id="text-entity-activities-52c6c7c7-33a3-5380-956b-851092f1c73a-attr-3-type" class="er entityLabel">String</text><rect height="21" width="103.21554565429688" y="66" x="54.113128662109375" class="er attributeBoxOdd"/><text style="dominant-baseline: middle; font-size: 10.2px;" transform="translate(59.113128662109375,76.5)" y="0" x="0" id="text-entity-activities-52c6c7c7-33a3-5380-956b-851092f1c73a-attr-3-name" class="er entityLabel">description</text><rect height="21" width="23.79498291015625" y="66" x="157.32867431640625" class="er attributeBoxOdd"/><text style="dominant-baseline: middle; font-size: 10.2px;" transform="translate(162.32867431640625,76.5)" y="0" x="0" id="text-entity-activities-52c6c7c7-33a3-5380-956b-851092f1c73a-attr-3-key" class="er entityLabel"/><rect height="21" width="54.113128662109375" y="87" x="0" class="er attributeBoxEven"/><text style="dominant-baseline: middle; font-size: 10.2px;" transform="translate(5,97.5)" y="0" x="0" id="text-entity-activities-52c6c7c7-33a3-5380-956b-851092f1c73a-attr-4-type" class="er entityLabel">DateTime</text><rect height="21" width="103.21554565429688" y="87" x="54.113128662109375" class="er attributeBoxEven"/><text style="dominant-baseline: middle; font-size: 10.2px;" transform="translate(59.113128662109375,97.5)" y="0" x="0" id="text-entity-activities-52c6c7c7-33a3-5380-956b-851092f1c73a-attr-4-name" class="er entityLabel">start_date_and_time</text><rect height="21" width="23.79498291015625" y="87" x="157.32867431640625" class="er attributeBoxEven"/><text style="dominant-baseline: middle; font-size: 10.2px;" transform="translate(162.32867431640625,97.5)" y="0" x="0" id="text-entity-activities-52c6c7c7-33a3-5380-956b-851092f1c73a-attr-4-key" class="er entityLabel"/><rect height="21" width="54.113128662109375" y="108" x="0" class="er attributeBoxOdd"/><text style="dominant-baseline: middle; font-size: 10.2px;" transform="translate(5,118.5)" y="0" x="0" id="text-entity-activities-52c6c7c7-33a3-5380-956b-851092f1c73a-attr-5-type" class="er entityLabel">DateTime</text><rect height="21" width="103.21554565429688" y="108" x="54.113128662109375" class="er attributeBoxOdd"/><text style="dominant-baseline: middle; font-size: 10.2px;" transform="translate(59.113128662109375,118.5)" y="0" x="0" id="text-entity-activities-52c6c7c7-33a3-5380-956b-851092f1c73a-attr-5-name" class="er entityLabel">end_date_and_time</text><rect height="21" width="23.79498291015625" y="108" x="157.32867431640625" class="er attributeBoxOdd"/><text style="dominant-baseline: middle; font-size: 10.2px;" transform="translate(162.32867431640625,118.5)" y="0" x="0" id="text-entity-activities-52c6c7c7-33a3-5380-956b-851092f1c73a-attr-5-key" class="er entityLabel"/><rect height="21" width="54.113128662109375" y="129" x="0" class="er attributeBoxEven"/><text style="dominant-baseline: middle; font-size: 10.2px;" transform="translate(5,139.5)" y="0" x="0" id="text-entity-activities-52c6c7c7-33a3-5380-956b-851092f1c73a-attr-6-type" class="er entityLabel">Status</text><rect height="21" width="103.21554565429688" y="129" x="54.113128662109375" class="er attributeBoxEven"/><text style="dominant-baseline: middle; font-size: 10.2px;" transform="translate(59.113128662109375,139.5)" y="0" x="0" id="text-entity-activities-52c6c7c7-33a3-5380-956b-851092f1c73a-attr-6-name" class="er entityLabel">status</text><rect height="21" width="23.79498291015625" y="129" x="157.32867431640625" class="er attributeBoxEven"/><text style="dominant-baseline: middle; font-size: 10.2px;" transform="translate(162.32867431640625,139.5)" y="0" x="0" id="text-entity-activities-52c6c7c7-33a3-5380-956b-851092f1c73a-attr-6-key" class="er entityLabel"/></g><rect height="14" width="65.375" y="216.9055633544922" x="68.65521240234375" class="er relationshipLabelBox"/><text style="text-anchor: middle; dominant-baseline: middle; font-size: 12px;" y="223.9055633544922" x="101.34271240234375" id="rel1" class="er relationshipLabel">enum:status</text><rect height="14" width="29.34375" y="207.09048461914062" x="310.3829345703125" class="er relationshipLabelBox"/><text style="text-anchor: middle; dominant-baseline: middle; font-size: 12px;" y="214.09048461914062" x="325.0548095703125" id="rel2" class="er relationshipLabel">users</text></svg>