<svg aria-roledescription="er" role="graphics-document document" viewBox="0 0 409.9028625488281 430" style="max-width: 409.903px; background-color: white;" xmlns:xlink="http://www.w3.org/1999/xlink" xmlns="http://www.w3.org/2000/svg" width="100%" id="mermaid-0"><style>#mermaid-0{font-family:"trebuchet ms",verdana,arial,sans-serif;font-size:16px;fill:#000000;}#mermaid-0 .error-icon{fill:#552222;}#mermaid-0 .error-text{fill:#552222;stroke:#552222;}#mermaid-0 .edge-thickness-normal{stroke-width:2px;}#mermaid-0 .edge-thickness-thick{stroke-width:3.5px;}#mermaid-0 .edge-pattern-solid{stroke-dasharray:0;}#mermaid-0 .edge-pattern-dashed{stroke-dasharray:3;}#mermaid-0 .edge-pattern-dotted{stroke-dasharray:2;}#mermaid-0 .marker{fill:#000000;stroke:#000000;}#mermaid-0 .marker.cross{stroke:#000000;}#mermaid-0 svg{font-family:"trebuchet ms",verdana,arial,sans-serif;font-size:16px;}#mermaid-0 .entityBox{fill:#cde498;stroke:#13540c;}#mermaid-0 .attributeBoxOdd{fill:#ffffff;stroke:#13540c;}#mermaid-0 .attributeBoxEven{fill:#f2f2f2;stroke:#13540c;}#mermaid-0 .relationshipLabelBox{fill:hsl(78.1578947368, 58.4615384615%, 84.5098039216%);opacity:0.7;background-color:hsl(78.1578947368, 58.4615384615%, 84.5098039216%);}#mermaid-0 .relationshipLabelBox rect{opacity:0.5;}#mermaid-0 .relationshipLine{stroke:#000000;}#mermaid-0 .entityTitleText{text-anchor:middle;font-size:18px;fill:#000000;}#mermaid-0 :root{--mermaid-font-family:"trebuchet ms",verdana,arial,sans-serif;}</style><g/><defs><marker orient="auto" markerHeight="18" markerWidth="18" refY="9" refX="0" id="ONLY_ONE_START"><path d="M9,0 L9,18 M15,0 L15,18" fill="none" stroke="gray"/></marker></defs><defs><marker orient="auto" markerHeight="18" markerWidth="18" refY="9" refX="18" id="ONLY_ONE_END"><path d="M3,0 L3,18 M9,0 L9,18" fill="none" stroke="gray"/></marker></defs><defs><marker orient="auto" markerHeight="18" markerWidth="30" refY="9" refX="0" id="ZERO_OR_ONE_START"><circle r="6" cy="9" cx="21" fill="white" stroke="gray"/><path d="M9,0 L9,18" fill="none" stroke="gray"/></marker></defs><defs><marker orient="auto" markerHeight="18" markerWidth="30" refY="9" refX="30" id="ZERO_OR_ONE_END"><circle r="6" cy="9" cx="9" fill="white" stroke="gray"/><path d="M21,0 L21,18" fill="none" stroke="gray"/></marker></defs><defs><marker orient="auto" markerHeight="36" markerWidth="45" refY="18" refX="18" id="ONE_OR_MORE_START"><path d="M0,18 Q 18,0 36,18 Q 18,36 0,18 M42,9 L42,27" fill="none" stroke="gray"/></marker></defs><defs><marker orient="auto" markerHeight="36" markerWidth="45" refY="18" refX="27" id="ONE_OR_MORE_END"><path d="M3,9 L3,27 M9,18 Q27,0 45,18 Q27,36 9,18" fill="none" stroke="gray"/></marker></defs><defs><marker orient="auto" markerHeight="36" markerWidth="57" refY="18" refX="18" id="ZERO_OR_MORE_START"><circle r="6" cy="18" cx="48" fill="white" stroke="gray"/><path d="M0,18 Q18,0 36,18 Q18,36 0,18" fill="none" stroke="gray"/></marker></defs><defs><marker orient="auto" markerHeight="36" markerWidth="57" refY="18" refX="39" id="ZERO_OR_MORE_END"><circle r="6" cy="18" cx="9" fill="white" stroke="gray"/><path d="M21,18 Q39,0 57,18 Q39,36 21,18" fill="none" stroke="gray"/></marker></defs><path style="stroke: gray; fill: none;" marker-start="url(#ZERO_OR_ONE_START)" marker-end="url(#ONLY_ONE_END)" d="M130.80099976062775,176L123.15284119049709,184.33333333333334C115.50468262036641,192.66666666666666,100.20836548010509,209.33333333333334,92.56020690997441,229.66666666666666C84.91204833984375,250,84.91204833984375,274,84.91204833984375,286L84.91204833984375,298" class="er relationshipLine"/><path style="stroke: gray; fill: none;" marker-start="url(#ZERO_OR_MORE_START)" marker-end="url(#ONLY_ONE_END)" d="M273.9745281934738,176L281.62268676360446,184.33333333333334C289.27084533373517,192.66666666666666,304.56716247399646,209.33333333333334,312.21532104412717,226C319.8634796142578,242.66666666666666,319.8634796142578,259.3333333333333,319.8634796142578,267.6666666666667L319.8634796142578,276" class="er relationshipLine"/><g transform="translate(20,298 )" id="entity-Status-07219c5b-eba2-5891-af91-1e86cbd77781"><rect height="90" width="129.8240966796875" y="0" x="0" class="er entityBox"/><text style="dominant-baseline: middle; text-anchor: middle; font-size: 12px;" transform="translate(64.91204833984375,12)" y="0" x="0" id="text-entity-Status-07219c5b-eba2-5891-af91-1e86cbd77781" class="er entityLabel">Status</text><rect height="22" width="64.91204833984375" y="24" x="0" class="er attributeBoxOdd"/><text style="dominant-baseline: middle; font-size: 10.2px;" transform="translate(5,35)" y="0" x="0" id="text-entity-Status-07219c5b-eba2-5891-af91-1e86cbd77781-attr-1-type" class="er entityLabel">PENDANT</text><rect height="22" width="64.91204833984375" y="24" x="64.91204833984375" class="er attributeBoxOdd"/><text style="dominant-baseline: middle; font-size: 10.2px;" transform="translate(69.91204833984375,35)" y="0" x="0" id="text-entity-Status-07219c5b-eba2-5891-af91-1e86cbd77781-attr-1-name" class="er entityLabel">PENDANT</text><rect height="22" width="64.91204833984375" y="46" x="0" class="er attributeBoxEven"/><text style="dominant-baseline: middle; font-size: 10.2px;" transform="translate(5,57)" y="0" x="0" id="text-entity-Status-07219c5b-eba2-5891-af91-1e86cbd77781-attr-2-type" class="er entityLabel">COMPLETED</text><rect height="22" width="64.91204833984375" y="46" x="64.91204833984375" class="er attributeBoxEven"/><text style="dominant-baseline: middle; font-size: 10.2px;" transform="translate(69.91204833984375,57)" y="0" x="0" id="text-entity-Status-07219c5b-eba2-5891-af91-1e86cbd77781-attr-2-name" class="er entityLabel">COMPLETED</text><rect height="22" width="64.91204833984375" y="68" x="0" class="er attributeBoxOdd"/><text style="dominant-baseline: middle; font-size: 10.2px;" transform="translate(5,79)" y="0" x="0" id="text-entity-Status-07219c5b-eba2-5891-af91-1e86cbd77781-attr-3-type" class="er entityLabel">CANCELED</text><rect height="22" width="64.91204833984375" y="68" x="64.91204833984375" class="er attributeBoxOdd"/><text style="dominant-baseline: middle; font-size: 10.2px;" transform="translate(69.91204833984375,79)" y="0" x="0" id="text-entity-Status-07219c5b-eba2-5891-af91-1e86cbd77781-attr-3-name" class="er entityLabel">CANCELED</text></g><g transform="translate(249.8240966796875,276 )" id="entity-users-33ae1e26-be31-5c1d-bf65-e859e9d0308e"><rect height="134" width="140.07876586914062" y="0" x="0" class="er entityBox"/><text style="dominant-baseline: middle; text-anchor: middle; font-size: 12px;" transform="translate(70.03938293457031,12)" y="0" x="0" id="text-entity-users-33ae1e26-be31-5c1d-bf65-e859e9d0308e" class="er entityLabel">users</text><rect height="22" width="54.095550537109375" y="24" x="0" class="er attributeBoxOdd"/><text style="dominant-baseline: middle; font-size: 10.2px;" transform="translate(5,35)" y="0" x="0" id="text-entity-users-33ae1e26-be31-5c1d-bf65-e859e9d0308e-attr-1-type" class="er entityLabel">Int</text><rect height="22" width="63.2955322265625" y="24" x="54.095550537109375" class="er attributeBoxOdd"/><text style="dominant-baseline: middle; font-size: 10.2px;" transform="translate(59.095550537109375,35)" y="0" x="0" id="text-entity-users-33ae1e26-be31-5c1d-bf65-e859e9d0308e-attr-1-name" class="er entityLabel">id</text><rect height="22" width="22.68768310546875" y="24" x="117.39108276367188" class="er attributeBoxOdd"/><text style="dominant-baseline: middle; font-size: 10.2px;" transform="translate(122.39108276367188,35)" y="0" x="0" id="text-entity-users-33ae1e26-be31-5c1d-bf65-e859e9d0308e-attr-1-key" class="er entityLabel">PK</text><rect height="22" width="54.095550537109375" y="46" x="0" class="er attributeBoxEven"/><text style="dominant-baseline: middle; font-size: 10.2px;" transform="translate(5,57)" y="0" x="0" id="text-entity-users-33ae1e26-be31-5c1d-bf65-e859e9d0308e-attr-2-type" class="er entityLabel">String</text><rect height="22" width="63.2955322265625" y="46" x="54.095550537109375" class="er attributeBoxEven"/><text style="dominant-baseline: middle; font-size: 10.2px;" transform="translate(59.095550537109375,57)" y="0" x="0" id="text-entity-users-33ae1e26-be31-5c1d-bf65-e859e9d0308e-attr-2-name" class="er entityLabel">login</text><rect height="22" width="22.68768310546875" y="46" x="117.39108276367188" class="er attributeBoxEven"/><text style="dominant-baseline: middle; font-size: 10.2px;" transform="translate(122.39108276367188,57)" y="0" x="0" id="text-entity-users-33ae1e26-be31-5c1d-bf65-e859e9d0308e-attr-2-key" class="er entityLabel"/><rect height="22" width="54.095550537109375" y="68" x="0" class="er attributeBoxOdd"/><text style="dominant-baseline: middle; font-size: 10.2px;" transform="translate(5,79)" y="0" x="0" id="text-entity-users-33ae1e26-be31-5c1d-bf65-e859e9d0308e-attr-3-type" class="er entityLabel">String</text><rect height="22" width="63.2955322265625" y="68" x="54.095550537109375" class="er attributeBoxOdd"/><text style="dominant-baseline: middle; font-size: 10.2px;" transform="translate(59.095550537109375,79)" y="0" x="0" id="text-entity-users-33ae1e26-be31-5c1d-bf65-e859e9d0308e-attr-3-name" class="er entityLabel">password</text><rect height="22" width="22.68768310546875" y="68" x="117.39108276367188" class="er attributeBoxOdd"/><text style="dominant-baseline: middle; font-size: 10.2px;" transform="translate(122.39108276367188,79)" y="0" x="0" id="text-entity-users-33ae1e26-be31-5c1d-bf65-e859e9d0308e-attr-3-key" class="er entityLabel"/><rect height="22" width="54.095550537109375" y="90" x="0" class="er attributeBoxEven"/><text style="dominant-baseline: middle; font-size: 10.2px;" transform="translate(5,101)" y="0" x="0" id="text-entity-users-33ae1e26-be31-5c1d-bf65-e859e9d0308e-attr-4-type" class="er entityLabel">DateTime</text><rect height="22" width="63.2955322265625" y="90" x="54.095550537109375" class="er attributeBoxEven"/><text style="dominant-baseline: middle; font-size: 10.2px;" transform="translate(59.095550537109375,101)" y="0" x="0" id="text-entity-users-33ae1e26-be31-5c1d-bf65-e859e9d0308e-attr-4-name" class="er entityLabel">created_at</text><rect height="22" width="22.68768310546875" y="90" x="117.39108276367188" class="er attributeBoxEven"/><text style="dominant-baseline: middle; font-size: 10.2px;" transform="translate(122.39108276367188,101)" y="0" x="0" id="text-entity-users-33ae1e26-be31-5c1d-bf65-e859e9d0308e-attr-4-key" class="er entityLabel"/><rect height="22" width="54.095550537109375" y="112" x="0" class="er attributeBoxOdd"/><text style="dominant-baseline: middle; font-size: 10.2px;" transform="translate(5,123)" y="0" x="0" id="text-entity-users-33ae1e26-be31-5c1d-bf65-e859e9d0308e-attr-5-type" class="er entityLabel">DateTime</text><rect height="22" width="63.2955322265625" y="112" x="54.095550537109375" class="er attributeBoxOdd"/><text style="dominant-baseline: middle; font-size: 10.2px;" transform="translate(59.095550537109375,123)" y="0" x="0" id="text-entity-users-33ae1e26-be31-5c1d-bf65-e859e9d0308e-attr-5-name" class="er entityLabel">updated_at</text><rect height="22" width="22.68768310546875" y="112" x="117.39108276367188" class="er attributeBoxOdd"/><text style="dominant-baseline: middle; font-size: 10.2px;" transform="translate(122.39108276367188,123)" y="0" x="0" id="text-entity-users-33ae1e26-be31-5c1d-bf65-e859e9d0308e-attr-5-key" class="er entityLabel"/></g><g transform="translate(110.86072540283203,20 )" id="entity-activities-52c6c7c7-33a3-5380-956b-851092f1c73a"><rect height="156" width="183.0540771484375" y="0" x="0" class="er entityBox"/><text style="dominant-baseline: middle; text-anchor: middle; font-size: 12px;" transform="translate(91.52703857421875,12)" y="0" x="0" id="text-entity-activities-52c6c7c7-33a3-5380-956b-851092f1c73a" class="er entityLabel">activities</text><rect height="22" width="54.095550537109375" y="24" x="0" class="er attributeBoxOdd"/><text style="dominant-baseline: middle; font-size: 10.2px;" transform="translate(5,35)" y="0" x="0" id="text-entity-activities-52c6c7c7-33a3-5380-956b-851092f1c73a-attr-1-type" class="er entityLabel">Int</text><rect height="22" width="106.27084350585938" y="24" x="54.095550537109375" class="er attributeBoxOdd"/><text style="dominant-baseline: middle; font-size: 10.2px;" transform="translate(59.095550537109375,35)" y="0" x="0" id="text-entity-activities-52c6c7c7-33a3-5380-956b-851092f1c73a-attr-1-name" class="er entityLabel">id</text><rect height="22" width="22.68768310546875" y="24" x="160.36639404296875" class="er attributeBoxOdd"/><text style="dominant-baseline: middle; font-size: 10.2px;" transform="translate(165.36639404296875,35)" y="0" x="0" id="text-entity-activities-52c6c7c7-33a3-5380-956b-851092f1c73a-attr-1-key" class="er entityLabel">PK</text><rect height="22" width="54.095550537109375" y="46" x="0" class="er attributeBoxEven"/><text style="dominant-baseline: middle; font-size: 10.2px;" transform="translate(5,57)" y="0" x="0" id="text-entity-activities-52c6c7c7-33a3-5380-956b-851092f1c73a-attr-2-type" class="er entityLabel">String</text><rect height="22" width="106.27084350585938" y="46" x="54.095550537109375" class="er attributeBoxEven"/><text style="dominant-baseline: middle; font-size: 10.2px;" transform="translate(59.095550537109375,57)" y="0" x="0" id="text-entity-activities-52c6c7c7-33a3-5380-956b-851092f1c73a-attr-2-name" class="er entityLabel">name</text><rect height="22" width="22.68768310546875" y="46" x="160.36639404296875" class="er attributeBoxEven"/><text style="dominant-baseline: middle; font-size: 10.2px;" transform="translate(165.36639404296875,57)" y="0" x="0" id="text-entity-activities-52c6c7c7-33a3-5380-956b-851092f1c73a-attr-2-key" class="er entityLabel"/><rect height="22" width="54.095550537109375" y="68" x="0" class="er attributeBoxOdd"/><text style="dominant-baseline: middle; font-size: 10.2px;" transform="translate(5,79)" y="0" x="0" id="text-entity-activities-52c6c7c7-33a3-5380-956b-851092f1c73a-attr-3-type" class="er entityLabel">String</text><rect height="22" width="106.27084350585938" y="68" x="54.095550537109375" class="er attributeBoxOdd"/><text style="dominant-baseline: middle; font-size: 10.2px;" transform="translate(59.095550537109375,79)" y="0" x="0" id="text-entity-activities-52c6c7c7-33a3-5380-956b-851092f1c73a-attr-3-name" class="er entityLabel">description</text><rect height="22" width="22.68768310546875" y="68" x="160.36639404296875" class="er attributeBoxOdd"/><text style="dominant-baseline: middle; font-size: 10.2px;" transform="translate(165.36639404296875,79)" y="0" x="0" id="text-entity-activities-52c6c7c7-33a3-5380-956b-851092f1c73a-attr-3-key" class="er entityLabel"/><rect height="22" width="54.095550537109375" y="90" x="0" class="er attributeBoxEven"/><text style="dominant-baseline: middle; font-size: 10.2px;" transform="translate(5,101)" y="0" x="0" id="text-entity-activities-52c6c7c7-33a3-5380-956b-851092f1c73a-attr-4-type" class="er entityLabel">DateTime</text><rect height="22" width="106.27084350585938" y="90" x="54.095550537109375" class="er attributeBoxEven"/><text style="dominant-baseline: middle; font-size: 10.2px;" transform="translate(59.095550537109375,101)" y="0" x="0" id="text-entity-activities-52c6c7c7-33a3-5380-956b-851092f1c73a-attr-4-name" class="er entityLabel">start_date_and_time</text><rect height="22" width="22.68768310546875" y="90" x="160.36639404296875" class="er attributeBoxEven"/><text style="dominant-baseline: middle; font-size: 10.2px;" transform="translate(165.36639404296875,101)" y="0" x="0" id="text-entity-activities-52c6c7c7-33a3-5380-956b-851092f1c73a-attr-4-key" class="er entityLabel"/><rect height="22" width="54.095550537109375" y="112" x="0" class="er attributeBoxOdd"/><text style="dominant-baseline: middle; font-size: 10.2px;" transform="translate(5,123)" y="0" x="0" id="text-entity-activities-52c6c7c7-33a3-5380-956b-851092f1c73a-attr-5-type" class="er entityLabel">DateTime</text><rect height="22" width="106.27084350585938" y="112" x="54.095550537109375" class="er attributeBoxOdd"/><text style="dominant-baseline: middle; font-size: 10.2px;" transform="translate(59.095550537109375,123)" y="0" x="0" id="text-entity-activities-52c6c7c7-33a3-5380-956b-851092f1c73a-attr-5-name" class="er entityLabel">end_date_and_time</text><rect height="22" width="22.68768310546875" y="112" x="160.36639404296875" class="er attributeBoxOdd"/><text style="dominant-baseline: middle; font-size: 10.2px;" transform="translate(165.36639404296875,123)" y="0" x="0" id="text-entity-activities-52c6c7c7-33a3-5380-956b-851092f1c73a-attr-5-key" class="er entityLabel"/><rect height="22" width="54.095550537109375" y="134" x="0" class="er attributeBoxEven"/><text style="dominant-baseline: middle; font-size: 10.2px;" transform="translate(5,145)" y="0" x="0" id="text-entity-activities-52c6c7c7-33a3-5380-956b-851092f1c73a-attr-6-type" class="er entityLabel">Status</text><rect height="22" width="106.27084350585938" y="134" x="54.095550537109375" class="er attributeBoxEven"/><text style="dominant-baseline: middle; font-size: 10.2px;" transform="translate(59.095550537109375,145)" y="0" x="0" id="text-entity-activities-52c6c7c7-33a3-5380-956b-851092f1c73a-attr-6-name" class="er entityLabel">status</text><rect height="22" width="22.68768310546875" y="134" x="160.36639404296875" class="er attributeBoxEven"/><text style="dominant-baseline: middle; font-size: 10.2px;" transform="translate(165.36639404296875,145)" y="0" x="0" id="text-entity-activities-52c6c7c7-33a3-5380-956b-851092f1c73a-attr-6-key" class="er entityLabel"/></g><rect height="14" width="66.259765625" y="223.98739624023438" x="58.94610595703125" class="er relationshipLabelBox"/><text style="text-anchor: middle; dominant-baseline: middle; font-size: 12px;" y="230.98739624023438" x="92.07598876953125" id="rel1" class="er relationshipLabel">enum:status</text><rect height="14" width="27.623046875" y="213.5785675048828" x="295.6597595214844" class="er relationshipLabelBox"/><text style="text-anchor: middle; dominant-baseline: middle; font-size: 12px;" y="220.5785675048828" x="309.4712829589844" id="rel2" class="er relationshipLabel">users</text></svg>